<svg xmlns="http://www.w3.org/2000/svg" width="30" height="30" viewBox="0 0 30 30">
  <path id="Twitter_Icon" data-name="Twitter Icon" d="M26.916,10.857c.019.328.019.656.019.984,0,10.008-6.187,21.539-17.494,21.539A15.107,15.107,0,0,1,0,29.982a10.356,10.356,0,0,0,1.485.094,10.942,10.942,0,0,0,7.633-3.234c-2.7-.07-4.968-2.25-5.749-5.25a6.335,6.335,0,0,0,1.161.117,5.36,5.36,0,0,0,1.618-.258c-2.817-.7-4.93-3.75-4.93-7.43v-.094A5.348,5.348,0,0,0,4,14.889a8.144,8.144,0,0,1-2.741-6.3,8.878,8.878,0,0,1,.838-3.82c3.027,4.594,7.576,7.594,12.678,7.922a10.451,10.451,0,0,1-.152-1.734c0-4.172,2.741-7.57,6.149-7.57A5.67,5.67,0,0,1,25.26,5.771a10.837,10.837,0,0,0,3.9-1.828,7.473,7.473,0,0,1-2.7,4.172A10.563,10.563,0,0,0,30,6.943a15.278,15.278,0,0,1-3.084,3.914Z" transform="translate(0 -3.381)"/>
</svg>
